<?xml version="1.0" encoding="utf-8"?>
<!-- Generator: Adobe Illustrator 27.5.0, SVG Export Plug-In . SVG Version: 6.00 Build 0)  -->
<svg version="1.1" id="레이어_1" xmlns="http://www.w3.org/2000/svg" xmlns:xlink="http://www.w3.org/1999/xlink" x="0px"
	 y="0px" viewBox="0 0 106 32" style="enable-background:new 0 0 106 32;" xml:space="preserve">
<style type="text/css">
	.st0{fill:#31ACE4;}
</style>
<g>
	<g id="Logo_1_">
		<path class="st0" d="M27.99,19.65c-1.32,0-2.37-1.05-2.37-2.4c0-1.34,1.05-2.37,2.37-2.37c1.34,0,2.39,1.03,2.39,2.39
			C30.38,18.62,29.33,19.65,27.99,19.65 M32.38,14.77v-1.65h-2.9c-0.47-0.16-0.97-0.26-1.48-0.26c-2.5,0-4.47,1.9-4.47,4.39
			c0,2.49,1.97,4.39,4.47,4.39c2.5,0,4.47-1.9,4.47-4.39c0-0.84-0.23-1.66-0.68-2.28L32.38,14.77z M18.34,19.65
			c-1.32,0-2.37-1.05-2.37-2.4c0-1.34,1.05-2.37,2.37-2.37c1.34,0,2.39,1.03,2.39,2.39C20.73,18.62,19.68,19.65,18.34,19.65
			 M18.34,12.87c-2.5,0-4.47,1.9-4.47,4.39c0,2.49,1.97,4.39,4.47,4.39c2.5,0,4.47-1.9,4.47-4.39
			C22.81,14.77,20.84,12.87,18.34,12.87 M11,21.41h2.07V9.63H11V21.41z M33.28,21.41h2.07v-8.28h-2.07V21.41z M27.99,24.34
			c-1.32,0-2.37-1.03-2.37-2.37h-2.1c0,2.48,1.97,4.39,4.47,4.39c2.5,0,4.47-1.9,4.47-4.39h-2.1
			C30.36,23.31,29.32,24.34,27.99,24.34 M42.95,16.4c0.27-1.1,1.11-1.71,2.19-1.71s1.89,0.6,2.15,1.71H42.95z M45.19,12.87
			c-2.48,0-4.37,1.9-4.37,4.44c0,2.5,1.73,4.34,4.41,4.34c1.48,0,2.81-0.55,3.78-1.58l-1.39-1.37c-0.68,0.65-1.4,1.11-2.34,1.11
			c-1.13,0-1.98-0.65-2.28-1.73h6.44v-0.5C49.44,14.76,47.69,12.87,45.19,12.87 M63.48,12.87c-1.02,0-1.89,0.39-2.5,1.05V9.63h-2.07
			v11.78h2.07v-4.5c0-1.19,0.76-2.02,2.02-2.02c1.18,0,1.82,0.73,1.82,2.02v4.5h2.07v-4.87C66.88,14.24,65.44,12.87,63.48,12.87
			 M54.57,14.87c0.87,0,1.58,0.45,2.13,1.08l1.44-1.42c-0.81-1.02-2.08-1.66-3.53-1.66c-2.5,0-4.47,1.9-4.47,4.39
			c0,2.49,1.97,4.39,4.47,4.39c1.45,0,2.73-0.65,3.53-1.66l-1.44-1.42c-0.53,0.61-1.26,1.08-2.15,1.08c-1.32,0-2.34-1.03-2.34-2.39
			C52.21,15.9,53.23,14.87,54.57,14.87 M39.42,10.58h-2.07v2.55h-1.11v1.84h1.11v6.44h2.07v-6.44h1.13v-1.84h-1.13V10.58z M34.3,9.4
			c-0.76,0-1.36,0.6-1.36,1.37c0,0.76,0.6,1.36,1.36,1.36c0.79,0,1.39-0.6,1.39-1.36C35.69,10,35.09,9.4,34.3,9.4 M82.58,5.64v4.18
			c-3.3,0-5.91,2.64-5.91,5.89c0,3.24,2.61,5.89,5.91,5.89v4.18c-5.59,0-10.14-4.51-10.14-10.07C72.44,10.15,76.99,5.64,82.58,5.64z
			 M82.72,13.9v4.16h4.87v4.87h4.16V13.9H82.72z"/>
	</g>
	<g>
		<g>
			<polygon class="st0" points="91.75,23.97 92.98,23.97 92.98,24.22 92.5,24.22 92.5,25.77 92.24,25.77 92.24,24.22 91.75,24.22 
							"/>
		</g>
		<g>
			<polygon class="st0" points="94.22,25.39 94.04,25.39 93.51,24.56 93.51,25.77 93.25,25.77 93.25,23.97 93.43,23.97 94.13,25.07 
				94.82,23.97 95,23.97 95,25.77 94.74,25.77 94.74,24.56 			"/>
		</g>
	</g>
</g>
</svg>
