<?xml version="1.0" encoding="UTF-8"?><svg id="_레이어_2" xmlns="http://www.w3.org/2000/svg" viewBox="0 0 555.78 99.84"><defs><style>.cls-1{fill:#7a2bc9;}</style></defs><g id="_레이어_1-2"><g><path class="cls-1" d="m1.71.21c6.13-.01,27.02-.03,32.27-.03,1.26,0,2.51.03,3.7.08,7.08.31,14.1,1.84,20.43,5,7.57,3.78,14.03,9.55,17.57,18.25,12.67,31.07-11.28,47.97-14.58,50.12-.22.14-.29.41-.19.65l10.28,23.53c.38.87-.26,1.84-1.21,1.84h-17.14c-1.3,0-2.47-.77-2.99-1.95l-7.78-17.74c-.05-.12-.17-.2-.3-.2h-21.54c-.18,0-.33.15-.33.33v18.17c0,.78-.63,1.41-1.41,1.41H1.41c-.78,0-1.41-.63-1.41-1.41V1.91C0,.97.77.21,1.71.21Zm18.09,21.67v36.73c0,.74.6,1.33,1.33,1.33h17.35c3.34,0,6.67-.63,9.69-2.05,5.17-2.43,12.3-7.77,11.21-19.14-1.98-20.68-24.82-18.88-27.76-18.88-6.68,0-6.65.04-9.89.05-1.07.02-1.93.89-1.93,1.96Z"/><path class="cls-1" d="m141.49,98.18c12.69-3.45,19.33-11.46,23.94-18.82,3.32-5.3,5-11.46,5-17.72V1.45c0-.46-.37-.84-.83-.85l-17.96-.38c-.37-.01-.68.29-.68.67v57.05s.16,21.93-20.18,21.93h0c-20.34,0-20.19-21.93-20.19-21.93V.89c0-.37-.3-.67-.67-.67l-17.96.38c-.46.01-.83.39-.83.85v60.19c0,6.26,1.68,12.42,5,17.72,4.61,7.36,11.25,15.37,23.94,18.82,6.99,1.9,14.42,1.9,21.42,0Z"/><path class="cls-1" d="m188.98.22c4.15-.03,17.52.19,27.35.19,1.18,0,2.35.04,3.48.12,12.62.89,24.5,6.45,33.53,15.32,8.01,7.87,13.42,18.27,13.42,32.03,0,53.13-55.16,51.95-55.16,51.95h-22.6c-.71,0-1.29-.58-1.29-1.29V1.52c0-.72.56-1.3,1.27-1.3Zm18.89,22.23v55.43c0,1.14.92,2.06,2.06,2.06h7.71s29.44-.62,29.44-31.71c0-11.76-6.54-19.16-14.9-23.85-3.82-2.14-8-3.6-12.36-3.96-.68-.06-1.39-.09-2.1-.09-3.04,0-5.95.04-7.81.06-1.14.02-2.04.94-2.04,2.06Z"/><path class="cls-1" d="m372.51,2.86v93.97c0,1.57,1.27,2.84,2.84,2.84h62.68c1.31,0,2.38-1.06,2.38-2.38v-15.28c0-1.31-1.06-2.38-2.38-2.38h-44.62c-.49,0-.89-.4-.89-.89v-17.52c0-.49.4-.89.89-.89h43.31c1.31,0,2.38-1.06,2.38-2.38v-15.74c0-1.31-1.06-2.38-2.38-2.38h-43.27c-.49,0-.89-.4-.89-.89v-17.72c0-.49.4-.89.89-.89h44.48c1.31,0,2.38-1.06,2.38-2.38V2.45c0-1.31-1.06-2.37-2.37-2.38-10.32-.02-51.4-.09-62.6-.07-1.57.02-2.83,1.29-2.83,2.86Z"/><path class="cls-1" d="m533.25,47.72c-2.96,15.67-15.31,24.35-17.62,25.85-.22.14-.29.41-.19.65l10.28,23.53c.38.87-.26,1.84-1.21,1.84h-17.14c-1.3,0-2.47-.77-2.99-1.95l-7.78-17.73c-.05-.12-.17-.2-.3-.2h-21.54c-.18,0-.33.15-.33.33v18.17c0,.78-.63,1.41-1.41,1.41h-17.08c-.78,0-1.41-.63-1.41-1.41V1.86c0-.94.76-1.7,1.7-1.7,6.13-.01,27.02-.03,32.27-.03,1.26,0,2.51.03,3.7.08,7.08.31,14.1,1.84,20.43,5,7.57,3.78,14.03,9.55,17.57,18.24.57,1.4,1.07,2.78,1.5,4.12l24.08,8.41-22.53,11.74Zm-58.91-26v36.73c0,.74.6,1.33,1.33,1.33h17.35c3.34,0,6.67-.63,9.69-2.05,5.17-2.43,12.3-7.77,11.21-19.14-1.98-20.68-24.82-18.88-27.76-18.88-6.68,0-6.65.04-9.89.05-1.07.01-1.93.88-1.93,1.96Zm24.95,4.71c-2.8,0-5.07,2.27-5.07,5.07s2.27,5.07,5.07,5.07,5.07-2.27,5.07-5.07-2.27-5.07-5.07-5.07Z"/><path class="cls-1" d="m281.37.2c4.15-.03,17.52.19,27.35.19,1.18,0,2.35.04,3.48.12,12.62.89,24.5,6.45,33.53,15.32,8.01,7.87,13.42,18.27,13.42,32.03,0,53.13-55.16,51.95-55.16,51.95h-22.6c-.71,0-1.29-.58-1.29-1.29V1.5c-.01-.71.56-1.29,1.27-1.3Zm18.89,22.24v55.43c0,1.14.92,2.06,2.06,2.06h7.71s29.44-.62,29.44-31.71c0-11.76-6.54-19.16-14.9-23.85-3.82-2.14-8-3.6-12.36-3.96-.68-.06-1.39-.09-2.1-.09-3.04,0-5.95.04-7.81.06-1.14.02-2.04.94-2.04,2.06Z"/></g></g></svg>