<?xml version="1.0" encoding="utf-8"?>
<!-- Generator: Adobe Illustrator 25.4.1, SVG Export Plug-In . SVG Version: 6.00 Build 0)  -->
<svg version="1.1" id="레이어_1" xmlns="http://www.w3.org/2000/svg" xmlns:xlink="http://www.w3.org/1999/xlink" x="0px"
	 y="0px" viewBox="0 0 595.28 841.89" style="enable-background:new 0 0 595.28 841.89;" xml:space="preserve">
<style type="text/css">
	.st0{fill:#7A2BC9;}
</style>
<g>
	<g>
		<path class="st0" d="M28.6,318.51c6.13-0.01,27.02-0.03,32.27-0.03c1.26,0,2.51,0.03,3.7,0.08c7.08,0.31,14.1,1.84,20.43,5
			c7.57,3.78,14.03,9.55,17.57,18.25c12.67,31.07-11.28,47.97-14.58,50.12c-0.22,0.14-0.29,0.41-0.19,0.65l10.28,23.53
			c0.38,0.87-0.26,1.84-1.21,1.84H79.73c-1.3,0-2.47-0.77-2.99-1.95l-7.78-17.74c-0.05-0.12-0.17-0.2-0.3-0.2H47.12
			c-0.18,0-0.33,0.15-0.33,0.33v18.17c0,0.78-0.63,1.41-1.41,1.41H28.3c-0.78,0-1.41-0.63-1.41-1.41v-96.35
			C26.89,319.27,27.66,318.51,28.6,318.51z M46.69,340.18l0,36.73c0,0.74,0.6,1.33,1.33,1.33h17.35c3.34,0,6.67-0.63,9.69-2.05
			c5.17-2.43,12.3-7.77,11.21-19.14c-1.98-20.68-24.82-18.88-27.76-18.88c-6.68,0-6.65,0.04-9.89,0.05
			C47.55,338.24,46.69,339.11,46.69,340.18z"/>
		<path class="st0" d="M137.48,318.68"/>
		<path class="st0" d="M168.38,416.48c12.69-3.45,19.33-11.46,23.94-18.82c3.32-5.3,5-11.46,5-17.72l0-60.19
			c0-0.46-0.37-0.84-0.83-0.85l-17.96-0.38c-0.37-0.01-0.68,0.29-0.68,0.67l0.01,57.05c0,0,0.15,21.93-20.19,21.93l0,0
			c-20.34,0-20.19-21.93-20.19-21.93l0.01-57.05c0-0.37-0.31-0.67-0.68-0.67l-17.96,0.38c-0.46,0.01-0.83,0.39-0.83,0.85l0,60.19
			c0,6.26,1.68,12.42,5,17.72c4.61,7.36,11.25,15.37,23.94,18.82C153.95,418.38,161.38,418.38,168.38,416.48z"/>
		<path class="st0" d="M215.87,318.52c4.15-0.03,17.52,0.19,27.35,0.19c1.18,0,2.35,0.04,3.48,0.12
			c12.62,0.89,24.5,6.45,33.53,15.32c8.01,7.87,13.42,18.27,13.42,32.03c0,53.13-55.16,51.95-55.16,51.95h-22.6
			c-0.71,0-1.29-0.58-1.29-1.29l0-97.02C214.59,319.1,215.16,318.52,215.87,318.52z M234.76,340.75l0,55.43
			c0,1.14,0.92,2.06,2.06,2.06h7.71c0,0,29.44-0.62,29.44-31.71c0-11.76-6.54-19.16-14.9-23.85c-3.82-2.14-8-3.6-12.36-3.96
			c-0.68-0.06-1.39-0.09-2.1-0.09c-3.04,0-5.95,0.04-7.81,0.06C235.66,338.71,234.76,339.63,234.76,340.75z"/>
		<path class="st0" d="M399.4,321.16l0,93.97c0,1.57,1.27,2.84,2.84,2.84h62.68c1.31,0,2.38-1.06,2.38-2.38v-15.28
			c0-1.31-1.06-2.38-2.38-2.38H420.3c-0.49,0-0.89-0.4-0.89-0.89v-17.52c0-0.49,0.4-0.89,0.89-0.89h43.31
			c1.31,0,2.38-1.06,2.38-2.38v-15.74c0-1.31-1.06-2.38-2.38-2.38h-43.27c-0.49,0-0.89-0.4-0.89-0.89v-17.72
			c0-0.49,0.4-0.89,0.89-0.89h44.48c1.31,0,2.38-1.06,2.38-2.38v-15.5c0-1.31-1.06-2.37-2.37-2.38c-10.32-0.02-51.4-0.09-62.6-0.07
			C400.66,318.32,399.4,319.59,399.4,321.16z"/>
		<path class="st0" d="M560.14,366.02c-2.96,15.67-15.31,24.35-17.62,25.85c-0.22,0.14-0.29,0.41-0.19,0.65l10.28,23.53
			c0.38,0.87-0.26,1.84-1.21,1.84h-17.14c-1.3,0-2.47-0.77-2.99-1.95l-7.78-17.73c-0.05-0.12-0.17-0.2-0.3-0.2h-21.54
			c-0.18,0-0.33,0.15-0.33,0.33v18.17c0,0.78-0.63,1.41-1.41,1.41h-17.08c-0.78,0-1.41-0.63-1.41-1.41v-96.35
			c0-0.94,0.76-1.7,1.7-1.7c6.13-0.01,27.02-0.03,32.27-0.03c1.26,0,2.51,0.03,3.7,0.08c7.08,0.31,14.1,1.84,20.43,5
			c7.57,3.78,14.03,9.55,17.57,18.24c0.57,1.4,1.07,2.78,1.5,4.12l24.08,8.41L560.14,366.02z M501.23,340.02v36.73
			c0,0.74,0.6,1.33,1.33,1.33h17.35c3.34,0,6.67-0.63,9.69-2.05c5.17-2.43,12.3-7.77,11.21-19.14
			c-1.98-20.68-24.82-18.88-27.76-18.88c-6.68,0-6.65,0.04-9.89,0.05C502.09,338.07,501.23,338.94,501.23,340.02z M526.18,344.73
			c-2.8,0-5.07,2.27-5.07,5.07c0,2.8,2.27,5.07,5.07,5.07c2.8,0,5.07-2.27,5.07-5.07C531.25,347,528.98,344.73,526.18,344.73z"/>
		<path class="st0" d="M308.26,318.5c4.15-0.03,17.52,0.19,27.35,0.19c1.18,0,2.35,0.04,3.48,0.12c12.62,0.89,24.5,6.45,33.53,15.32
			c8.01,7.87,13.42,18.27,13.42,32.03c0,53.13-55.16,51.95-55.16,51.95h-22.6c-0.71,0-1.29-0.58-1.29-1.29l0-97.02
			C306.98,319.09,307.55,318.51,308.26,318.5z M327.15,340.74l0,55.43c0,1.14,0.92,2.06,2.06,2.06h7.71c0,0,29.44-0.62,29.44-31.71
			c0-11.76-6.54-19.16-14.9-23.85c-3.82-2.14-8-3.6-12.36-3.96c-0.68-0.06-1.39-0.09-2.1-0.09c-3.04,0-5.95,0.04-7.81,0.06
			C328.05,338.7,327.15,339.62,327.15,340.74z"/>
	</g>
</g>
</svg>
