<svg xmlns="http://www.w3.org/2000/svg" width="109" height="109">
    <path fill-rule="evenodd" opacity=".102" fill="#37B47E" d="M34.1 16.1c-4.628 3.253-15.555 6.625-20 10.9-2.645 4.275-2.677 18.793-4 24 .477 5.207-2.95 22.277 3 29.1 7.75 8.623 16.473 12.374 29 12.9 14.327.526 26.963 4.413 34 4 8.837-.413 13.304-6.287 14-12 2.496-5.712 8.816-20.332 7-29-.016-8.668-7.83-24.29-17-32.9-7.37-6.81-15.356-14.124-24-15-6.844.924-15.572 6.547-22 8z"/>
    <path fill-rule="evenodd" fill="#37B47E" d="M91.43 55.515 74.363 81.898c-.332.512-.898.783-1.452.698a20.712 20.712 0 0 1-2.159-.455c-8.018-2.149-13.048-8.751-17.927-15.156-5.007-6.573-9.749-12.794-17.453-14.396L18.961 77.957c-.37.573-1.013.822-1.59.667a1.274 1.274 0 0 1-.44-.214c-.653-.477-.799-1.456-.327-2.182l16.964-26.226.001-.004 17.07-26.385c.331-.51.896-.783 1.451-.695 9.302 1.456 14.783 8.651 20.083 15.61 5.203 6.823 10.113 13.269 18.352 14.56.489.078.896.421 1.079.911a1.71 1.71 0 0 1-.174 1.516zm-15.917 4c1.613-2.491 3.226-4.983 4.835-7.475-2.621-1.969-4.897-4.433-7.029-7.047-1.604 2.48-3.206 4.957-4.813 7.437-2.145-2.656-4.177-5.485-6.322-8.14l4.81-7.438c-2.173-2.712-4.41-5.205-6.976-7.133l-4.84 7.483c-2.211-1.66-4.668-2.937-7.509-3.621l-5.692 8.794c2.844.685 5.301 1.961 7.511 3.624l-4.838 7.473c2.624 1.972 4.898 4.434 7.032 7.049l4.81-7.437c2.148 2.656 4.18 5.485 6.325 8.14-1.602 2.477-3.206 4.958-4.809 7.434 2.173 2.713 4.41 5.206 6.976 7.134l4.841-7.483c2.209 1.663 4.666 2.94 7.508 3.621l5.689-8.794c-2.841-.685-5.298-1.962-7.509-3.621zm-12.696 1.709c1.899-2.933 3.794-5.864 5.689-8.794 2.149 2.653 4.408 5.134 7.007 7.085l-5.688 8.794c-2.6-1.951-4.859-4.429-7.008-7.085zM49.488 45.999c1.896-2.934 3.791-5.864 5.69-8.797 2.598 1.953 4.858 4.432 7.006 7.088-1.898 2.93-3.794 5.864-5.692 8.794-2.145-2.656-4.405-5.134-7.004-7.085z"/>
    <path fill="none" d="M0 0h108.1v108.1H0V0z"/>
</svg>
