<svg xmlns="http://www.w3.org/2000/svg" width="109" height="109">
    <path fill-rule="evenodd" opacity=".102" fill="#FFAB00" d="M82.1 11c-4.674-3.751-20.714 3.131-24 3.1-1.487 1.769-11.453 5.43-17 8-3.747 4.371-32 25.813-32 40 0 15.986 17.679 15.931 25 17C43.221 81.969 52.935 94.728 60 96c7.065 1.272 15.497-4.023 17.1-6 3.403-1.977 20.496-11.569 20-16.9 1.304-3.531-6.465-16.027-8-25.1.264-9.073 3.412-30.599-7-37z"/>
    <path fill-rule="evenodd" fill="#FFAB00" d="m81.477 60.28-1.619 4.135-1.375 3.497c-.852 2.159-2.55 3.874-4.787 4.838a9.87 9.87 0 0 1-2.806.74c-2.26 5.101-7.417 8.732-12.906 10.46-1.557.488-3.3-.407-3.703-1.883-.371-1.348.452-2.754 1.866-3.2 3.261-1.031 6.289-2.874 8.279-5.532a3.56 3.56 0 0 1-1.012-.182l-2.893-.994c-1.672-.573-2.563-2.376-1.948-3.932l7.963-20.216c.624-1.586 2.517-2.401 4.217-1.816l2.891.991c.943.325 1.678 1.04 1.99 1.928.14.046.28.097.42.145l.783-1.906a.295.295 0 0 0-.166-.391l-1.583-.649c-.963-.394-1.496-1.346-1.294-2.31l.296-1.418a13.644 13.644 0 0 0-.543-7.535c-1.457.736-3.272.424-4.315-.791-2.527-2.95-6.289-4.644-10.321-4.644H48.906c-4.032 0-7.795 1.694-10.321 4.644-1.031 1.2-2.878 1.561-4.318.8a13.631 13.631 0 0 0-.543 7.526l.299 1.418c.201.964-.332 1.916-1.298 2.31l-1.58.649a.29.29 0 0 0-.169.382l.784 1.915c.143-.048.279-.099.422-.145.309-.888 1.048-1.606 1.987-1.928l2.894-.994c1.701-.582 3.593.233 4.218 1.819l7.963 20.216c.614 1.559-.283 3.362-1.948 3.932l-2.894.991a3.588 3.588 0 0 1-2.852-.266c-2.396.875-5.075.878-7.43-.134-2.237-.964-3.937-2.682-4.786-4.838l-2.998-7.635a8.025 8.025 0 0 1 .283-6.574c.754-1.519 1.938-2.768 3.417-3.644l-.848-2.07c-.439-1.036.081-2.212 1.183-2.664l1.584-.649a.294.294 0 0 0 .185-.33l-.299-1.418a15.347 15.347 0 0 1 .923-9.239c-.692-1.131-.555-2.488.306-3.498a19.651 19.651 0 0 1 3.044-2.87s1.983-1.456 3.297-2.052a21.414 21.414 0 0 1 9.495-2.21h10.005c6.191 0 11.96 2.601 15.832 7.132.813.949 1.07 2.328.316 3.519a15.32 15.32 0 0 1 .913 9.218l-.296 1.418a.289.289 0 0 0 .186.33l1.58.649c1.106.452 1.626 1.628 1.184 2.674l-.846 2.06c1.48.876 2.663 2.125 3.414 3.644a8.008 8.008 0 0 1 .283 6.577zM41.986 70.719c.26.658 1.047.997 1.753.755l2.894-.994c.754-.337 1.024-.879.809-1.634l-7.963-20.22c-.244-.618-1.099-.979-1.753-.755l-2.893.991a1.335 1.335 0 0 0-.768.664 1.181 1.181 0 0 0-.042.973l7.963 20.22zM28.362 54.455a6.34 6.34 0 0 0-.225 5.207l2.995 7.635c.673 1.706 2.023 3.067 3.792 3.828a7.734 7.734 0 0 0 5.303.301l-8.038-20.403c-1.701.658-3.053 1.864-3.827 3.432zm44.882-23.152c-3.505-4.101-8.73-6.456-14.333-6.456H48.906c-2.992 0-5.964.691-8.591 2.001-.989.454-2.988 1.855-2.988 1.855a18.038 18.038 0 0 0-2.755 2.6c-1.225 1.434 1.282 3.277 2.511 1.84 2.894-3.379 7.202-5.316 11.823-5.316h10.005c4.617 0 8.926 1.937 11.82 5.316 1.203 1.404 3.755-.385 2.513-1.84zM59.561 79.467a22.37 22.37 0 0 1-2.799 1.091c-.472.149-.745.618-.621 1.067.214.545.624.755 1.229.631a24.26 24.26 0 0 0 3.176-1.246l-.985-1.543zm1.665-.888.985 1.54c3.831-2.268 5.743-5.083 6.569-6.629a10.2 10.2 0 0 1-1.932-.41c-.803 1.385-2.484 3.628-5.622 5.499zm11.758-29.717-2.894-.991c-.657-.224-1.509.137-1.756.755l-7.963 20.22c-.215.755.059 1.297.813 1.637l2.891.991c.708.242 1.495-.097 1.755-.755l7.964-20.22c.214-.755-.056-1.297-.81-1.637zm6.471 5.593c-.777-1.565-2.13-2.774-3.827-3.432L67.59 71.426a7.748 7.748 0 0 0 5.3-.297c1.772-.765 3.118-2.126 3.794-3.832l1.373-3.498 1.622-4.134a6.363 6.363 0 0 0-.224-5.21zM31.74 58.434c.182.464-.071.976-.569 1.149-.462.158-1.06-.097-1.232-.53a4.706 4.706 0 0 1 .162-3.85c.225-.448.794-.643 1.275-.436.481.209.689.739.468 1.188a3.013 3.013 0 0 0-.104 2.479z"/>
    <path fill="none" d="M0 0h108.1v108.1H0V0z"/>
</svg>
