<svg xmlns="http://www.w3.org/2000/svg" width="109" height="109">
    <path fill-rule="evenodd" opacity=".102" fill="#FA531B" d="M10 54.1s3.336 43.627 25 42c21.664.173 38.65-14.313 45.1-24 8.25-7.887 17-28.57 17-41C97.1 20.47 81.23 10 55 10 28.77 10 7.734 28.502 10 54.1z"/>
    <path fill-rule="evenodd" fill="#FA531B" d="m70.407 16.053-.909.243c-2.701.724-4.301 3.589-3.614 6.44-10.194 15.611-21.71 19.917-25.452 20.952l-.556-2.073c-.183-.685-.894-1.105-1.565-.926L24.462 44.4c-4.323 1.159-6.84 5.758-5.629 10.281l2.208 8.238c1.204 4.492 5.679 7.203 10.002 6.044l.992-.266 4.924 18.377c.699 2.61 3.298 4.197 5.788 3.53l.799-.215c2.49-.667 3.948-3.34 3.248-5.951l-.863-3.223 5.217-1.398c.435-.116.783-.491.898-.957.117-.455-.034-.962-.381-1.307l-9.103-8.91-.692-2.581 3.023-.81c.699-.187 1.081-.882.885-1.614l-.536-1.998c3.74-.986 15.812-3.046 32.526 5.448.829 2.749 3.636 4.388 6.323 3.668l.908-.243c2.756-.738 4.373-3.656 3.607-6.515L76.803 19.951c-.773-2.888-3.64-4.637-6.396-3.898zm15.752 48.601c.395 1.473-.413 2.938-1.84 3.32l-.908.243c-1.401.376-2.863-.497-3.254-1.955L68.355 22.215c-.396-1.476.43-2.978 1.831-3.353l.908-.243c1.398-.375 2.867.512 3.263 1.988l11.802 44.047zM41.858 49.011l-.735-2.742c3.757-1.039 15.289-5.285 25.66-20.178l3.005 11.216c-12.265 7.1-24.129 10.669-27.93 11.704zm28.637-9.066 6.366 23.759c-16.511-7.735-28.556-5.635-32.31-4.645l-1.997-7.453c3.746-1.019 15.528-4.551 27.941-11.661zM48.266 77.839l-3.023.81-1.368-5.105 4.391 4.295zm-8.845-11.121 4.924 18.376c.325 1.214-.347 2.456-1.478 2.759l-.8.215c-1.131.303-2.334-.438-2.659-1.651l-4.924-18.376 4.937-1.323zm-1.647-23.163 5.221 19.484-12.632 3.385c-2.954.791-6.047-1.082-6.873-4.161l-2.207-8.239c-.832-3.107.905-6.293 3.859-7.085l12.632-3.384z"/>
    <path fill="none" d="M0 0h108.1v108.1H0V0z"/>
</svg>
