<svg xmlns="http://www.w3.org/2000/svg" width="109" height="109">
    <path fill-rule="evenodd" opacity=".102" fill="#754FFE" d="M48 16.1s-8.719.25-11 1.9c-2.281 1.651-9.307 11.932-12 14.1-2.693 3.968-15.9 19.661-15.9 30C9.1 74.239 20.784 94.733 32 95c11.216.267 20.431-3.802 29-1.9 8.569 3.702 20.54 6.023 26.1 1.9 7.359-4.123 13.291-13.209 9.9-22.9-3.391-7.891-7.577-13.917-9.9-23-.523-7.283.087-37.268-9-39.1-7.288-1.831-9.151 2.943-15 3.1-4.049 1.957-12.325 3.878-15.1 3z"/>
    <path fill-rule="evenodd" fill="#754FFE" d="m80.667 53.468-1.443 1.542.157.188c2.044 2.189 2.206 5.614.363 7.803-.912 1.082-2.136 1.73-3.458 1.82 1.297 2.161 1.194 4.97-.407 6.849-.964 1.177-2.29 1.824-3.715 1.852-.348 0-.663-.028-.978-.059.07.459.085.926.041 1.416-.154 1.667-.979 3.146-2.29 4.104-2 1.451-4.751 1.141-6.583-.738-.158 1.632-.993 3.115-2.275 4.041a4.773 4.773 0 0 1-2.81.925c-1.139 0-2.275-.431-3.242-1.204l-1.352 1.452c-.996 1.047-2.289 1.604-3.674 1.604h-.132c-1.44-.032-2.762-.679-3.725-1.82-.781-.926-1.198-2.13-1.257-3.335-2.004 1.42-4.696 1.299-6.44-.369-1.081-1.047-1.685-2.471-1.729-4.013 0-.337.015-.678.073-1.016a7.085 7.085 0 0 1-1.352.032c-1.542-.153-2.941-1.048-3.817-2.44-1.355-2.158-1.07-5.12.689-7.061a5.094 5.094 0 0 1-2.319-.895 5.661 5.661 0 0 1-2.29-4.103 5.794 5.794 0 0 1 1.499-4.476l.516-.557-1.857-1.973c-6.843-7.34-6.843-19.254 0-26.594h.015c7.073-7.591 18.584-7.591 25.669 0l1.428 1.542 1.008-1.079c0-.031.014-.031.014-.031l.748-.8c.088-.095.19-.157.304-.22 7.132-6.508 17.877-6.171 24.621 1.051 6.839 7.313 6.839 19.25 0 26.562zM46.583 81.854c.605.71 1.44 1.11 2.334 1.138.905.031 1.758-.338 2.388-1.016l1.297-1.389-4.594-4.904-1.168 1.236c-1.268 1.385-1.381 3.574-.257 4.935zm-7.836-3.86c1.25 1.204 3.338 1.083 4.638-.306l2.074-2.22c.014-.032.029-.032.044-.063l1.121-1.204-4.594-4.935-3.415 3.671c-.633.679-.967 1.573-.952 2.558a3.506 3.506 0 0 0 1.084 2.499zm-6.513-7.061c.56.89 1.41 1.416 2.392 1.542.978.094 1.927-.279 2.619-.989l3.415-3.668-4.594-4.939-.418.431c-.014.032-.044.06-.044.06l-2.839 3.055c-1.15 1.205-1.385 3.147-.531 4.508zm-3.601-11.078c.084 1.047.604 1.941 1.44 2.561 1.238.894 3.011.679 4.176-.522l.447-.467-4.594-4.934-.535.557a3.602 3.602 0 0 0-.934 2.805zm22.541-31.929c-3.166-3.393-7.316-5.095-11.463-5.095-4.162 0-8.316 1.702-11.466 5.095h-.015c-6.078 6.508-6.078 17.12 0 23.628l26.563 28.448c1.139 1.205 2.953 1.448 4.191.553a3.54 3.54 0 0 0 1.454-2.561 3.706 3.706 0 0 0-.934-2.805h-.015L47.602 62.448a1.03 1.03 0 0 1-.286-.71c0-.279.099-.557.286-.738a.882.882 0 0 1 1.37 0l11.887 12.706h.015c.026.036.055.063.084.126l2.693 2.868c1.139 1.204 2.952 1.451 4.194.557a3.453 3.453 0 0 0 1.44-2.562 3.63 3.63 0 0 0-.923-2.805h-.015L53.569 56.061a1.114 1.114 0 0 1 0-1.483c.389-.4.993-.4 1.367 0l14.792 15.829v.032a3.105 3.105 0 0 0 2.378.984c.908 0 1.729-.428 2.333-1.141 1.14-1.358 1.011-3.578-.289-4.967l-1.942-2.095-12.664-13.545a1.085 1.085 0 0 1 0-1.479c.374-.404.982-.404 1.37 0L73.56 61.738s.015 0 .015.031c.637.679 1.483 1.016 2.392 1.016a3.136 3.136 0 0 0 2.337-1.169c1.136-1.361 1.008-3.582-.289-4.966L60.768 38.2l-6.107 6.54c-1.092 1.169-2.561 1.816-4.092 1.816-.183 0-.359 0-.546-.032-1.729-.149-3.271-1.168-4.264-2.71-1.542-2.436-1.18-5.771.854-7.96l5.989-6.386-1.428-1.542zm28.108.428c-6.312-6.755-16.58-6.755-22.907 0l-8.385 8.979c-1.352 1.448-1.623 3.735-.619 5.308.667 1.047 1.674 1.695 2.824 1.82 1.154.122 2.279-.31 3.085-1.173l8.612-9.226a.93.93 0 0 1 1.37 0c.389.403.389 1.082 0 1.451l-1.109 1.205 15.701 16.844 1.428-1.541c6.092-6.513 6.092-17.124 0-23.667zM77.18 46.866c-.378-.4-.378-1.047 0-1.479a.938.938 0 0 1 1.381 0c.377.432.377 1.079 0 1.479a.938.938 0 0 1-1.381 0zM45.023 30.178a1.078 1.078 0 0 1 0-1.451.886.886 0 0 1 1.37 0 1.05 1.05 0 0 1 0 1.451c-.374.4-.993.4-1.37 0z"/>
    <path fill="none" d="M0 0h108.1v108.1H0V0z"/>
</svg>
