<svg xmlns="http://www.w3.org/2000/svg" width="440" height="240">
    <path fill-rule="evenodd" fill="#FFF" d="M416.1 188.999h-23.153l-15.662-20.304-15.656 20.304H337.48l27.74-35.845-27.617-35.834h24.02l15.662 20.238 15.662-20.238H416.1l-26.833 35.839 26.833 35.84zm-106.776-65.86h18.948v65.86h-18.948v-65.86zm0-23.068h18.948v18.883h-18.948v-18.883zm-27.495 53.088c0-4.666-1.592-8.544-4.87-11.858-3.275-3.314-7.085-4.921-11.641-4.921-4.617 0-8.453 1.607-11.737 4.921-3.276 3.314-4.869 7.192-4.869 11.858v35.84h-18.944v-35.84c0-9.845 3.509-18.384 10.431-25.387 6.927-6.994 15.38-10.542 25.119-10.542 9.753 0 18.178 3.551 25.046 10.56 6.9 6.985 10.409 15.524 10.409 25.369v35.84h-18.944v-35.84zm-79.513 31.502c-5.095 2.816-10.629 4.241-16.511 4.241-9.746 0-18.198-3.543-25.119-10.535-6.86-6.946-10.341-15.453-10.341-25.298 0-9.829 3.473-18.368 10.319-25.362 6.962-6.969 15.409-10.477 25.141-10.477 9.666 0 18.049 3.478 24.909 10.338 6.93 6.931 10.471 15.399 10.546 25.177v36.254h-18.944v-4.338zm-4.869-43.448c-3.242-3.322-7.046-4.929-11.642-4.929-4.623 0-8.461 1.615-11.73 4.923-3.214 3.29-4.787 7.175-4.787 11.862 0 4.623 1.573 8.478 4.807 11.791 3.249 3.284 7.081 4.902 11.71 4.902 4.604 0 8.4-1.608 11.607-4.896 3.31-3.345 4.904-7.192 4.904-11.797 0-4.667-1.594-8.545-4.869-11.856zm-73.812 5.359c0-2.859-.944-5.144-2.966-7.194-2.025-2.043-4.262-2.998-7.026-2.998-2.829 0-5.088.95-7.111 2.998-1.991 2.012-2.935 4.292-2.976 7.184v42.437H84.612v-42.523c0-2.834-.931-5.076-2.922-7.058-2.043-2.101-4.265-3.038-7.069-3.038-2.827 0-5.091.95-7.114 3.003-1.951 2.007-2.881 4.307-2.881 7.189v42.427H45.682v-42.427c0-8.014 2.831-14.97 8.414-20.695 5.716-5.696 12.603-8.557 20.525-8.557 7.59 0 14.135 2.533 19.498 7.528 5.332-5.005 11.88-7.528 19.524-7.528 7.942 0 14.808 2.87 20.411 8.529 5.661 5.723 8.528 12.7 8.528 20.723v42.427h-18.947v-42.427zM295.587 66.936a34.954 34.954 0 0 1-1.135 6.077c.63.308.944 1.046.676 1.709l-1.859 4.621c-.269.662-.987.954-1.656.748-1.027 1.906-2.264 3.721-3.681 5.46a1.36 1.36 0 0 1 0 1.915l-3.488 3.535a1.339 1.339 0 0 1-1.893.005 34.3 34.3 0 0 1-5.042 3.509c.226.667-.059 1.41-.71 1.685l-4.556 1.939c-.636.273-1.333-.03-1.669-.622a34.41 34.41 0 0 1-6.474 1.264c-.043.706-.603 1.29-1.316 1.29h-4.936c-.71 0-1.281-.58-1.321-1.29a35.111 35.111 0 0 1-6.06-1.162c-.32.609-1.025.925-1.667.661l-4.569-1.883c-.643-.262-.931-.977-.739-1.635a35.574 35.574 0 0 1-5.451-3.741 1.314 1.314 0 0 1-1.847-.02l-3.494-3.529c-.513-.513-.499-1.335-.021-1.865a35.964 35.964 0 0 1-3.466-5.137c-.658.217-1.391-.065-1.664-.726l-1.907-4.598c-.274-.652.027-1.38.634-1.703a35.93 35.93 0 0 1-1.231-6.507 1.36 1.36 0 0 1-1.32-1.352v-4.988a1.36 1.36 0 0 1 1.336-1.355c.205-2.088.589-4.11 1.128-6.067-.643-.308-.965-1.056-.689-1.729l1.857-4.611c.259-.661 1.001-.967 1.663-.753a35.704 35.704 0 0 1 3.659-5.498 1.373 1.373 0 0 1 .021-1.883l3.488-3.526a1.32 1.32 0 0 1 1.853-.018 35.413 35.413 0 0 1 5.074-3.51c-.213-.663.07-1.397.718-1.672l4.541-1.931c.643-.273 1.341.025 1.671.617a34.746 34.746 0 0 1 6.482-1.266c.04-.711.611-1.292 1.321-1.292h4.936c.705 0 1.273.581 1.316 1.292 2.091.21 4.102.604 6.057 1.162.315-.604 1.02-.918 1.663-.654l4.573 1.875c.651.268.947.991.742 1.659a34.242 34.242 0 0 1 5.408 3.738c.533-.523 1.369-.529 1.888 0l3.501 3.526c.53.531.53 1.395 0 1.926l-.006.011a34.676 34.676 0 0 1 3.426 5.071 1.336 1.336 0 0 1 1.723.723l1.915 4.597c.277.663-.032 1.404-.654 1.722a36.457 36.457 0 0 1 1.238 6.497 1.344 1.344 0 0 1 1.325 1.344l.008 4.993a1.36 1.36 0 0 1-1.32 1.352zm-35.271-26.885c-12.562 0-22.795 10.332-22.795 23.037 0 12.703 10.233 23.039 22.795 23.039 12.572 0 22.795-10.336 22.795-23.039 0-12.705-10.223-23.037-22.795-23.037zm0 44.941c-11.946 0-21.665-9.826-21.665-21.904 0-12.077 9.719-21.902 21.665-21.902 11.95 0 21.676 9.825 21.676 21.902 0 12.078-9.726 21.904-21.676 21.904zm-1.667-5.321v-9.514a7.2 7.2 0 0 1-2.027-.853l-6.675 6.75c2.531 2.121 5.41 3.316 8.702 3.617zm-11.055-5.986 6.65-6.724a7.118 7.118 0 0 1-.884-2.073h-9.396c.31 3.314 1.504 6.219 3.63 8.797zm-3.651-12.156h9.344a7.396 7.396 0 0 1 .866-2.166l-6.66-6.74c-2.092 2.591-3.27 5.532-3.55 8.906zm14.706-15.022c-3.34.302-6.257 1.531-8.831 3.722l6.65 6.722a7.126 7.126 0 0 1 2.181-.935v-9.509zm1.667 12.653c-.492 0-.951.116-1.38.284-.099.04-.185.088-.287.136a3.887 3.887 0 0 0-1.89 1.949c-.046.119-.046.255-.086.376-.118.38-.235.764-.235 1.183 0 .486.117.946.275 1.381.059.149.137.28.219.419.383.738.97 1.345 1.717 1.704.156.076.319.123.484.172.376.131.766.247 1.183.247.417 0 .793-.116 1.17-.242.171-.054.328-.091.486-.167a3.878 3.878 0 0 0 1.738-1.714c.075-.134.155-.258.217-.401.157-.438.272-.903.272-1.399 0-.426-.115-.818-.237-1.203-.035-.116-.035-.242-.089-.356-.368-.867-1.062-1.552-1.901-1.962a2.374 2.374 0 0 0-.288-.123 3.737 3.737 0 0 0-1.368-.284zm1.656-12.653v9.504a7.101 7.101 0 0 1 2.181.93l6.62-6.685c-2.557-2.213-5.463-3.447-8.801-3.749zm11.125 6.145-6.626 6.696c.404.667.713 1.395.882 2.181h9.336c-.296-3.35-1.479-6.286-3.592-8.877zm3.572 12.236h-9.391a7.189 7.189 0 0 1-.887 2.091l6.599 6.671c2.153-2.586 3.365-5.475 3.679-8.762zm-12.666 4.427a7.091 7.091 0 0 1-2.031.844v9.512c3.295-.301 6.161-1.501 8.673-3.64l-6.642-6.716zM180.25 92.229c-4.343-4.388-6.546-9.79-6.546-16.056V9.1h18.945v18.058h21.011v19.151h-21.011v29.864c0 1.097.286 1.825.978 2.532.753.759 1.479 1.072 2.504 1.072h22.772v19.15h-22.772c-6.142 0-11.493-2.251-15.881-6.698zm-51.752 6.698c-9.747 0-18.201-3.548-25.123-10.543-6.86-6.941-10.342-15.452-10.342-25.296v-35.93h18.948v35.93c0 4.626 1.571 8.484 4.807 11.795 3.248 3.287 7.077 4.894 11.71 4.894 4.552 0 8.362-1.607 11.638-4.921 3.277-3.315 4.872-7.162 4.872-11.768v-35.93h18.944v35.93c0 9.864-3.517 18.385-10.458 25.319-6.818 6.964-15.245 10.52-24.996 10.52zm-62.526-4.342c-5.101 2.821-10.636 4.247-16.516 4.247-9.74 0-18.194-3.544-25.114-10.536C17.482 81.359 14 72.846 14 62.998c0-9.838 3.474-18.372 10.319-25.368 6.963-6.963 15.411-10.472 25.137-10.472 9.67 0 18.049 3.478 24.914 10.34 6.923 6.931 10.472 15.398 10.546 25.176v36.253H65.972v-4.342zm-4.87-43.443c-3.24-3.321-7.045-4.929-11.646-4.929-4.612 0-8.455 1.615-11.737 4.929-3.2 3.283-4.773 7.169-4.773 11.856 0 4.622 1.573 8.478 4.8 11.792 3.255 3.283 7.094 4.901 11.71 4.901 4.609 0 8.406-1.608 11.611-4.896 3.313-3.345 4.905-7.192 4.905-11.797 0-4.667-1.592-8.544-4.87-11.856z"/>
    <text font-family="RixRak-Sans" fill="#FFF" font-weight="bold" font-size="24" x="27" y="226.516">국내 최고의 모터스포츠 문화 메이커</text>
    <text font-family="RixRak-Sans" fill="#FFF" font-weight="bold" font-size="24" x="310" y="83.516">오토매닉스</text>
    <path fill="none" d="M0 0h439.1v239.1H0V0z"/>
</svg>
